<svg xmlns="http://www.w3.org/2000/svg" xmlns:xlink="http://www.w3.org/1999/xlink" viewBox="0 0 12 18"><path d="M 11.488 11.488 C 11.677 11.677 11.543 12 11.276 12 L 6.3 12 C 6.134 12 6 12.134 6 12.3 L 6 17.276 C 6 17.543 5.677 17.677 5.488 17.488 L 0.117 12.117 C 0.042 12.042 0 11.94 0 11.834 L 0 6.3 C 0 6.134 0.134 6 0.3 6 L 6 6 Z" fill="rgb(0, 0, 0)"></path><path d="M 6 6 L 0.512 0.512 C 0.323 0.323 0.457 0 0.724 0 L 11.7 0 C 11.866 0 12 0.134 12 0.3 L 12 5.7 C 12 5.866 11.866 6 11.7 6 Z" fill="rgb(0, 0, 0)"></path></svg>