<svg width="240" height="75" viewBox="0 0 240 75" fill="none" xmlns="http://www.w3.org/2000/svg">
<path d="M33.0388 67.7948H32.238C30.7031 69.6633 28.8346 71.2649 26.6324 72.5996C24.4969 73.9343 21.7275 74.6016 18.3241 74.6016C15.7882 74.6016 13.3858 74.1678 11.1169 73.3003C8.9147 72.4995 6.97943 71.365 5.3111 69.8969C3.64276 68.4288 2.34146 66.6603 1.4072 64.5916C0.472929 62.5229 0.00579534 60.2539 0.00579534 57.7848C0.00579534 55.2489 0.506295 52.98 1.5073 50.978C2.5083 48.9093 3.9097 47.1408 5.7115 45.6727C7.5133 44.2046 9.6154 43.1035 12.0178 42.3694C14.4869 41.5686 17.1563 41.1682 20.0258 41.1682C23.229 41.1682 25.865 41.4351 27.9337 41.969C30.0024 42.4361 31.7041 42.9366 33.0388 43.4705V41.969C33.0388 39.3664 32.0044 37.2309 29.9357 35.5626C27.867 33.8275 25.2977 32.96 22.228 32.96C17.6901 32.96 13.853 34.8619 10.7165 38.6657L1.207 32.1592C6.4122 25.6193 13.5193 22.3494 22.5283 22.3494C30.1359 22.3494 35.9417 24.1512 39.9457 27.7548C43.9497 31.2917 45.9517 36.5636 45.9517 43.5706V73H33.0388V67.7948ZM33.0388 53.0801C31.5039 52.346 29.9023 51.7788 28.234 51.3784C26.6324 50.9113 24.864 50.6777 22.9287 50.6777C19.7922 50.6777 17.3565 51.3784 15.6214 52.7798C13.9531 54.1145 13.1189 55.7828 13.1189 57.7848C13.1189 59.7868 13.9197 61.3884 15.5213 62.5896C17.1896 63.7908 19.0915 64.3914 21.227 64.3914C22.9621 64.3914 24.5637 64.0911 26.0318 63.4905C27.4999 62.8232 28.7345 61.989 29.7355 60.988C30.8032 59.9203 31.604 58.7191 32.1379 57.3844C32.7385 55.983 33.0388 54.5482 33.0388 53.0801ZM66.688 30.3574H67.4888C69.0237 27.8883 71.0924 25.953 73.695 24.5516C76.2976 23.0835 79.2673 22.3494 82.6039 22.3494C85.6737 22.3494 88.3764 22.8499 90.712 23.8509C93.0477 24.8519 94.9496 26.2867 96.4177 28.1552C97.9526 29.957 99.0871 32.1592 99.8211 34.7618C100.622 37.2977 101.022 40.1338 101.022 43.2703V73H87.9092V44.8719C87.9092 41.335 87.1084 38.7324 85.5068 37.0641C83.972 35.329 81.703 34.4615 78.7 34.4615C76.8982 34.4615 75.2966 34.8619 73.8952 35.6627C72.5606 36.3968 71.3927 37.4311 70.3917 38.7658C69.4575 40.0337 68.7234 41.5686 68.1895 43.3704C67.7224 45.1055 67.4888 46.974 67.4888 48.976V73H54.3757V23.951H66.688V30.3574ZM109.853 1.3284H122.966V40.3674H123.567L139.983 23.951H156.199V24.7518L137.981 42.4695L157.701 72.1992V73H142.185L128.772 51.4785L122.966 57.1842V73H109.853V1.3284ZM168.239 16.8439C167.104 16.8439 166.003 16.6437 164.935 16.2433C163.934 15.7762 163.034 15.1756 162.233 14.4415C161.499 13.6407 160.898 12.7398 160.431 11.7388C160.031 10.7378 159.83 9.6367 159.83 8.4355C159.83 7.2343 160.031 6.1332 160.431 5.1322C160.898 4.1312 161.499 3.26366 162.233 2.5296C163.034 1.7288 163.934 1.1282 164.935 0.727795C166.003 0.260664 167.104 0.0270979 168.239 0.0270979C170.574 0.0270979 172.576 0.861264 174.245 2.5296C175.913 4.1312 176.747 6.09983 176.747 8.4355C176.747 10.7712 175.913 12.7732 174.245 14.4415C172.576 16.0431 170.574 16.8439 168.239 16.8439ZM161.732 73V23.951H174.845V73H161.732ZM189.751 35.1622H181.142V23.951H189.751V8.936H202.864V23.951H214.876V35.1622H202.864V54.1812C202.864 55.3157 202.964 56.3834 203.164 57.3844C203.431 58.3187 203.898 59.1195 204.566 59.7868C205.5 60.8545 206.835 61.3884 208.57 61.3884C209.704 61.3884 210.605 61.2883 211.272 61.0881C211.94 60.8212 212.574 60.4875 213.174 60.0871L216.878 71.5986C215.343 72.3327 213.675 72.8665 211.873 73.2002C210.138 73.6006 208.203 73.8008 206.067 73.8008C203.598 73.8008 201.362 73.4338 199.36 72.6997C197.425 71.8989 195.79 70.8312 194.456 69.4965C191.319 66.4935 189.751 62.2226 189.751 56.6837V35.1622Z" fill="white"/>
<path d="M230.428 73.6006C228.026 73.6006 225.957 72.7664 224.222 71.0981C222.554 69.363 221.719 67.2943 221.719 64.8919C221.719 62.4895 222.554 60.4541 224.222 58.7858C225.957 57.1175 228.026 56.2833 230.428 56.2833C232.831 56.2833 234.866 57.1175 236.534 58.7858C238.203 60.4541 239.037 62.4895 239.037 64.8919C239.037 67.2943 238.203 69.363 236.534 71.0981C234.866 72.7664 232.831 73.6006 230.428 73.6006Z" fill="#FF1F00"/>
</svg>
